<mxfile host="app.diagrams.net" modified="2022-03-13T02:06:50.062Z" agent="5.0 (Macintosh; Intel Mac OS X 10_15_7) AppleWebKit/537.36 (KHTML, like Gecko) Chrome/99.0.4844.51 Safari/537.36" etag="tMtdDQ0kxaQeZAWh8RoE" version="17.1.1" type="github">
  <diagram name="Page-1" id="c7558073-3199-34d8-9f00-42111426c3f3">
    <mxGraphModel dx="1186" dy="771" grid="1" gridSize="10" guides="1" tooltips="1" connect="1" arrows="1" fold="1" page="1" pageScale="1" pageWidth="826" pageHeight="1169" background="none" math="0" shadow="0">
      <root>
        <mxCell id="0" />
        <mxCell id="1" parent="0" />
        <mxCell id="4" value="Select and get voucher code 1" style="whiteSpace=wrap;align=center;verticalAlign=middle;fontStyle=1;strokeWidth=3;fillColor=#FFFFCC" parent="1" vertex="1">
          <mxGeometry x="80" y="80" width="100" height="60" as="geometry" />
        </mxCell>
        <mxCell id="37" value="" style="edgeStyle=none;noEdgeStyle=1;strokeColor=#990000;strokeWidth=2;entryX=0.5;entryY=0;entryDx=0;entryDy=0;" parent="1" source="4" target="JjS-k0a-XNkLNeTOAhTF-98" edge="1">
          <mxGeometry width="100" height="100" relative="1" as="geometry">
            <mxPoint x="280" y="190" as="sourcePoint" />
            <mxPoint x="130" y="230" as="targetPoint" />
          </mxGeometry>
        </mxCell>
        <mxCell id="JjS-k0a-XNkLNeTOAhTF-97" value="Thread 1" style="text;html=1;resizable=0;autosize=1;align=center;verticalAlign=middle;points=[];fillColor=none;strokeColor=none;rounded=0;" vertex="1" parent="1">
          <mxGeometry x="100" y="50" width="60" height="20" as="geometry" />
        </mxCell>
        <mxCell id="JjS-k0a-XNkLNeTOAhTF-100" value="" style="edgeStyle=orthogonalEdgeStyle;rounded=0;orthogonalLoop=1;jettySize=auto;html=1;" edge="1" parent="1" source="JjS-k0a-XNkLNeTOAhTF-98" target="JjS-k0a-XNkLNeTOAhTF-99">
          <mxGeometry relative="1" as="geometry" />
        </mxCell>
        <mxCell id="JjS-k0a-XNkLNeTOAhTF-98" value="Update &amp; lock for customer" style="whiteSpace=wrap;align=center;verticalAlign=middle;fontStyle=1;strokeWidth=3;fillColor=#FFFFCC" vertex="1" parent="1">
          <mxGeometry x="80" y="240" width="100" height="60" as="geometry" />
        </mxCell>
        <mxCell id="JjS-k0a-XNkLNeTOAhTF-99" value="Commit" style="whiteSpace=wrap;html=1;fillColor=#FFFFCC;fontStyle=1;strokeWidth=3;" vertex="1" parent="1">
          <mxGeometry x="80" y="420" width="100" height="60" as="geometry" />
        </mxCell>
        <mxCell id="JjS-k0a-XNkLNeTOAhTF-101" value="Select and get voucher code 2" style="whiteSpace=wrap;align=center;verticalAlign=middle;fontStyle=1;strokeWidth=3;fillColor=#FFFFCC" vertex="1" parent="1">
          <mxGeometry x="270" y="180" width="100" height="60" as="geometry" />
        </mxCell>
        <mxCell id="JjS-k0a-XNkLNeTOAhTF-102" value="" style="edgeStyle=none;noEdgeStyle=1;strokeColor=#990000;strokeWidth=2;entryX=0.5;entryY=0;entryDx=0;entryDy=0;" edge="1" parent="1" source="JjS-k0a-XNkLNeTOAhTF-101" target="JjS-k0a-XNkLNeTOAhTF-105">
          <mxGeometry width="100" height="100" relative="1" as="geometry">
            <mxPoint x="470" y="190" as="sourcePoint" />
            <mxPoint x="320" y="271" as="targetPoint" />
          </mxGeometry>
        </mxCell>
        <mxCell id="JjS-k0a-XNkLNeTOAhTF-103" value="Thread 2" style="text;html=1;resizable=0;autosize=1;align=center;verticalAlign=middle;points=[];fillColor=none;strokeColor=none;rounded=0;" vertex="1" parent="1">
          <mxGeometry x="290" y="50" width="60" height="20" as="geometry" />
        </mxCell>
        <mxCell id="JjS-k0a-XNkLNeTOAhTF-104" value="" style="edgeStyle=orthogonalEdgeStyle;rounded=0;orthogonalLoop=1;jettySize=auto;html=1;" edge="1" parent="1" source="JjS-k0a-XNkLNeTOAhTF-105" target="JjS-k0a-XNkLNeTOAhTF-106">
          <mxGeometry relative="1" as="geometry" />
        </mxCell>
        <mxCell id="JjS-k0a-XNkLNeTOAhTF-105" value="Update &amp; lock for customer" style="whiteSpace=wrap;align=center;verticalAlign=middle;fontStyle=1;strokeWidth=3;fillColor=#FFFFCC" vertex="1" parent="1">
          <mxGeometry x="270" y="300" width="100" height="60" as="geometry" />
        </mxCell>
        <mxCell id="JjS-k0a-XNkLNeTOAhTF-106" value="Commit" style="whiteSpace=wrap;html=1;fillColor=#FFFFCC;fontStyle=1;strokeWidth=3;" vertex="1" parent="1">
          <mxGeometry x="270" y="420" width="100" height="60" as="geometry" />
        </mxCell>
        <mxCell id="JjS-k0a-XNkLNeTOAhTF-111" value="" style="edgeStyle=orthogonalEdgeStyle;rounded=0;orthogonalLoop=1;jettySize=auto;html=1;" edge="1" parent="1" source="JjS-k0a-XNkLNeTOAhTF-109" target="JjS-k0a-XNkLNeTOAhTF-101">
          <mxGeometry relative="1" as="geometry" />
        </mxCell>
        <mxCell id="JjS-k0a-XNkLNeTOAhTF-109" value="Wait until thread 1 commited" style="ellipse;whiteSpace=wrap;html=1;fillColor=#FFFFCC;fontStyle=1;strokeWidth=3;" vertex="1" parent="1">
          <mxGeometry x="260" y="80" width="120" height="60" as="geometry" />
        </mxCell>
        <mxCell id="JjS-k0a-XNkLNeTOAhTF-112" value="Select and get voucher code 3" style="whiteSpace=wrap;align=center;verticalAlign=middle;fontStyle=1;strokeWidth=3;fillColor=#FFFFCC" vertex="1" parent="1">
          <mxGeometry x="460" y="180" width="100" height="60" as="geometry" />
        </mxCell>
        <mxCell id="JjS-k0a-XNkLNeTOAhTF-113" value="" style="edgeStyle=none;noEdgeStyle=1;strokeColor=#990000;strokeWidth=2;entryX=0.5;entryY=0;entryDx=0;entryDy=0;" edge="1" parent="1" source="JjS-k0a-XNkLNeTOAhTF-112" target="JjS-k0a-XNkLNeTOAhTF-116">
          <mxGeometry width="100" height="100" relative="1" as="geometry">
            <mxPoint x="660" y="190" as="sourcePoint" />
            <mxPoint x="510" y="271" as="targetPoint" />
          </mxGeometry>
        </mxCell>
        <mxCell id="JjS-k0a-XNkLNeTOAhTF-114" value="Thread 2" style="text;html=1;resizable=0;autosize=1;align=center;verticalAlign=middle;points=[];fillColor=none;strokeColor=none;rounded=0;" vertex="1" parent="1">
          <mxGeometry x="480" y="50" width="60" height="20" as="geometry" />
        </mxCell>
        <mxCell id="JjS-k0a-XNkLNeTOAhTF-115" value="" style="edgeStyle=orthogonalEdgeStyle;rounded=0;orthogonalLoop=1;jettySize=auto;html=1;" edge="1" parent="1" source="JjS-k0a-XNkLNeTOAhTF-116" target="JjS-k0a-XNkLNeTOAhTF-117">
          <mxGeometry relative="1" as="geometry" />
        </mxCell>
        <mxCell id="JjS-k0a-XNkLNeTOAhTF-116" value="Update &amp; lock for customer" style="whiteSpace=wrap;align=center;verticalAlign=middle;fontStyle=1;strokeWidth=3;fillColor=#FFFFCC" vertex="1" parent="1">
          <mxGeometry x="460" y="300" width="100" height="60" as="geometry" />
        </mxCell>
        <mxCell id="JjS-k0a-XNkLNeTOAhTF-117" value="Commit" style="whiteSpace=wrap;html=1;fillColor=#FFFFCC;fontStyle=1;strokeWidth=3;" vertex="1" parent="1">
          <mxGeometry x="460" y="420" width="100" height="60" as="geometry" />
        </mxCell>
        <mxCell id="JjS-k0a-XNkLNeTOAhTF-118" value="" style="edgeStyle=orthogonalEdgeStyle;rounded=0;orthogonalLoop=1;jettySize=auto;html=1;" edge="1" parent="1" source="JjS-k0a-XNkLNeTOAhTF-119" target="JjS-k0a-XNkLNeTOAhTF-112">
          <mxGeometry relative="1" as="geometry" />
        </mxCell>
        <mxCell id="JjS-k0a-XNkLNeTOAhTF-119" value="Wait until thread 1 commited" style="ellipse;whiteSpace=wrap;html=1;fillColor=#FFFFCC;fontStyle=1;strokeWidth=3;" vertex="1" parent="1">
          <mxGeometry x="450" y="80" width="120" height="60" as="geometry" />
        </mxCell>
      </root>
    </mxGraphModel>
  </diagram>
</mxfile>
